<svg width="382" height="520" viewBox="0 0 382 520" fill="none" xmlns="http://www.w3.org/2000/svg">
<path d="M266.989 130.623C266.992 130.581 266.996 130.529 267 130.465C267.011 130.295 267.025 130.047 267.04 129.724C267.071 129.08 267.104 128.141 267.117 126.951C267.143 124.569 267.089 121.176 266.766 117.108C266.122 108.98 264.406 98.1101 260.101 87.2166C255.794 76.3177 248.876 65.3484 237.806 57.1065C226.723 48.8547 211.589 43.4196 191.002 43.4196C168.926 43.4196 152.521 48.8424 140.359 57.0671C128.205 65.2869 120.388 76.2377 115.371 87.1409C110.358 98.0363 108.126 108.911 107.145 117.046C106.653 121.118 106.474 124.514 106.418 126.899C106.389 128.091 106.392 129.031 106.402 129.677C106.407 129.999 106.413 130.249 106.419 130.419C106.422 130.504 106.424 130.569 106.426 130.615C106.426 130.615 106.426 130.615 106.426 130.616L106.424 130.655C106.421 130.727 106.417 130.833 106.411 130.972C106.401 131.249 106.386 131.659 106.371 132.192C106.341 133.258 106.308 134.818 106.297 136.8C106.276 140.765 106.344 146.423 106.698 153.21C107.407 166.778 109.264 184.896 113.867 203.036C118.466 221.158 125.834 239.422 137.641 253.178C149.492 266.986 165.791 276.217 188.05 276.217C210.311 276.217 226.448 266.984 238.051 253.166C249.607 239.403 256.636 221.133 260.897 203.01C265.162 184.868 266.681 166.75 267.136 153.182C267.364 146.395 267.326 140.737 267.231 136.772C267.184 134.79 267.122 133.23 267.072 132.164C267.047 131.631 267.024 131.221 267.008 130.944C267.001 130.805 266.994 130.699 266.99 130.627L266.989 130.623Z" fill="#F8D9CB" stroke="#1A1A1A" stroke-width="3"/>
<path fill-rule="evenodd" clip-rule="evenodd" d="M265.461 159.051C265.461 159.051 273.617 147.261 283.292 152.981C292.969 158.697 289.889 179.807 283.292 190.366C276.695 200.921 266.045 206.138 260.157 198.033" fill="#F8D9CB"/>
<path d="M265.461 159.051C265.461 159.051 273.617 147.261 283.292 152.981C292.969 158.697 289.889 179.807 283.292 190.366C276.695 200.921 266.045 206.138 260.157 198.033" stroke="#1A1A1A" stroke-width="3" stroke-linecap="round"/>
<path d="M282.233 166.176C282.233 166.176 271.33 162.539 263.592 178.594" stroke="#1A1A1A" stroke-width="2" stroke-linecap="round" stroke-linejoin="round"/>
<path d="M268.885 170.738C268.885 170.738 280.749 177.086 272.911 186.622" stroke="#1A1A1A" stroke-width="2" stroke-linecap="round" stroke-linejoin="round"/>
<path fill-rule="evenodd" clip-rule="evenodd" d="M108.511 159.051C108.511 159.051 100.355 147.261 90.6809 152.981C81.0065 158.697 84.0839 179.807 90.6809 190.366C97.2779 200.921 107.928 206.138 113.819 198.033" fill="#F8D9CB"/>
<path d="M108.511 159.051C108.511 159.051 100.355 147.261 90.6809 152.981C81.0065 158.697 84.0839 179.807 90.6809 190.366C97.2779 200.921 107.928 206.138 113.819 198.033" stroke="#1A1A1A" stroke-width="3" stroke-linecap="round"/>
<path d="M91.7395 166.176C91.7395 166.176 102.642 162.539 110.383 178.594" stroke="#1A1A1A" stroke-width="2" stroke-linecap="round" stroke-linejoin="round"/>
<path d="M105.089 170.738C105.089 170.738 93.2246 177.086 101.063 186.622" stroke="#1A1A1A" stroke-width="2" stroke-linecap="round" stroke-linejoin="round"/>
<path d="M164.257 207.974C164.257 207.974 176.125 216.258 190.503 216.258C204.885 216.258 214.819 207.974 214.819 207.974" stroke="#1A1A1A" stroke-width="3" stroke-linecap="round" stroke-linejoin="round"/>
<path fill-rule="evenodd" clip-rule="evenodd" d="M147.387 76.9915C178.834 86.8775 172.927 95.988 208.836 100.676C229.015 103.31 259.563 88.5038 259.563 88.5038C259.563 88.5038 265.137 102.539 266.535 116.839C268.622 138.196 266.535 159.818 266.535 159.818L275.229 156.997C275.229 156.997 275.902 149.295 279.757 142.173C284.464 133.476 294.895 127.886 294.895 127.886C294.895 127.886 299.242 118.938 299.242 109.891C299.242 99.2469 294.895 88.5038 294.895 88.5038C294.895 88.5038 289.3 81.1366 289.3 73.8606C289.3 67.815 294.895 55.6584 294.895 55.6584C294.895 55.6584 294.901 36.1081 285.507 27.5038C272.69 15.7634 265.349 14.4825 247.222 13.6708C218.289 12.3754 191.387 23.5273 191.387 23.5273C191.387 23.5273 178.525 10.1179 162.781 3.85611C149.581 -1.39384 133.499 0.503818 133.499 0.503818C133.499 0.503818 123.952 1.953 121.37 10.3486C118.293 20.3521 118.293 40.7833 118.293 40.7833C118.293 40.7833 116.924 44.1806 114.022 44.9195C108.802 46.2487 107.074 43.1113 102.051 44.9195C92.1566 48.4808 87.4179 48.7117 84.1867 55.6584C80.687 63.1822 84.1867 76.9915 84.1867 76.9915C84.1867 76.9915 71.1044 86.9396 70.2747 100.676C69.6436 111.124 81.2652 125.361 81.2652 125.361C81.2652 125.361 92.4963 135.083 98.0521 142.173C105.621 151.833 107.515 158.861 107.515 158.861C107.515 158.861 115.55 142.315 118.293 125.361C120.939 109.01 116.501 103.993 121.37 88.5038C124.103 79.8088 124.102 82.9312 133.499 76.9915C138.649 73.7362 141.166 75.0355 147.387 76.9915Z" fill="#272727"/>
<path fill-rule="evenodd" clip-rule="evenodd" d="M134.808 249.82V310.394C134.808 310.394 120.611 334.722 77.0339 342.277C77.0339 342.277 152.459 413.911 191 413.911C226.635 413.911 303.725 342.277 303.725 342.277C303.725 342.277 244.946 329.274 240.889 310.394V249.82" fill="#F8D9CB"/>
<path d="M134.808 249.82V310.394C134.808 310.394 120.611 334.722 77.0339 342.277C77.0339 342.277 152.459 413.911 191 413.911C226.635 413.911 303.725 342.277 303.725 342.277C303.725 342.277 244.946 329.274 240.889 310.394V249.82" stroke="#1A1A1A" stroke-width="3" stroke-linecap="round" stroke-linejoin="round"/>
<g clip-path="url(#clip0_2_602)">
<path fill-rule="evenodd" clip-rule="evenodd" d="M124.875 310.504L111.954 318.956L49.7768 339.649L33.6025 356.721L11.4009 432.967L0 518.504H382L358.022 384.766L337.974 342.618L263.917 315.692L244.924 312.69L237.349 326.616L217.777 336.373H162.286L124.875 310.504Z" fill="#F3D338"/>
<path fill-rule="evenodd" clip-rule="evenodd" d="M133.914 311.504C133.914 311.504 141.528 324.198 147.342 326.847C162.008 333.53 176.247 334.414 189.855 334.414C203.1 334.414 220.208 330.324 233.366 323.856C235.704 322.707 239.114 321.036 241.901 318.938C243.661 317.612 244.236 311.504 244.236 311.504L256.896 314.439L265 341.202L143.715 390.504L121 323.856C121 323.856 121.545 316.608 123.813 314.439C126.081 312.27 133.914 311.504 133.914 311.504Z" fill="#F7F7F7" stroke="#969AA8" stroke-width="2"/>
<path fill-rule="evenodd" clip-rule="evenodd" d="M127.346 312.504C127.346 312.504 128.207 312.575 128.482 314.694C128.896 317.893 128.695 325.422 131.031 327.599C142.283 338.087 147.81 340.186 172.1 345.089C188.619 348.423 212.274 346.227 224.532 341.007C250.535 329.934 248.622 312.504 248.622 312.504L270 323.162L266.499 402.802C266.499 402.802 141.703 405.504 140.773 405.504C139.843 405.504 114.544 352.287 112.962 349.205C111.379 346.123 105 332.585 105 332.585C105 332.585 105.661 325.605 113.911 318.191C116.747 315.642 127.346 312.504 127.346 312.504Z" fill="#F3D338"/>
<path fill-rule="evenodd" clip-rule="evenodd" d="M113.078 320.504C113.078 320.504 114.829 339.841 135.753 350.409C154.742 359.999 189.329 360.746 189.329 360.746L189.587 365.504C189.587 365.504 151.424 363.506 132.038 352.916C111.78 341.85 113.078 320.504 113.078 320.504Z" fill="#C9AB1A"/>
<path fill-rule="evenodd" clip-rule="evenodd" d="M264.59 316.508C264.59 316.508 263.841 335.911 243.492 347.573C225.024 358.157 190.523 360.735 190.523 360.735L190.512 365.5C190.512 365.5 228.52 361.483 247.332 349.88C266.989 337.756 264.59 316.508 264.59 316.508Z" fill="#C9AB1A"/>
<path d="M0 518.504C0 518.504 15.2641 392.004 33.5611 356.721C40.4871 343.365 60.333 334.513 60.333 334.513L111.816 318.956C111.816 318.956 115.223 313.637 121.138 311.548C127.053 309.459 134 311.548 134 311.548" stroke="#C9AB1A" stroke-width="5" stroke-linecap="round"/>
<path fill-rule="evenodd" clip-rule="evenodd" d="M54.8176 407.711C54.8176 407.711 61.2794 420.501 66.2629 438.108C72.587 460.451 71.2508 464.712 77.4329 487.61C82.1036 504.91 87.9686 518.504 87.9686 518.504H66.2629L54.8176 407.711Z" fill="#E3C533"/>
<path fill-rule="evenodd" clip-rule="evenodd" d="M29.1044 432.967L46.6437 518.504C46.6437 518.504 34.4596 498.548 29.1044 468.736C26.7095 455.404 29.1044 432.967 29.1044 432.967Z" fill="#E3C533"/>
<path d="M49.7156 387.277C49.7156 387.277 52.0743 426.466 55.7474 455.595C60.348 492.079 66.263 518.504 66.263 518.504" stroke="#C9AB1A" stroke-width="5" stroke-linecap="round"/>
<path d="M382 523.504C382 523.504 366.734 396.673 348.434 361.298C341.507 347.907 340.343 344.513 328.984 338.672C304.724 329.587 264.187 317.978 264.187 317.978C264.187 317.978 260.78 312.645 254.864 310.551C248.948 308.457 242 310.551 242 310.551" stroke="#C9AB1A" stroke-width="5" stroke-linecap="round"/>
<path fill-rule="evenodd" clip-rule="evenodd" d="M317.164 405.074C317.164 405.074 311.922 425.245 306.938 442.898C300.612 465.299 301.949 469.572 295.766 492.53C291.094 509.875 285.228 523.504 285.228 523.504H306.938L317.164 405.074Z" fill="#E3C533"/>
<path fill-rule="evenodd" clip-rule="evenodd" d="M351.426 437.743L333.884 523.504C333.884 523.504 346.07 503.496 351.426 473.606C353.822 460.239 351.426 437.743 351.426 437.743Z" fill="#E3C533"/>
<path d="M323.487 391.933C323.487 391.933 321.128 431.225 317.455 460.43C312.853 497.01 306.937 523.504 306.937 523.504" stroke="#C9AB1A" stroke-width="5" stroke-linecap="round"/>
<path d="M129.082 314.707C129.082 314.707 128.543 322.952 131.549 326.643C141.335 338.659 161.864 345.504 188.834 345.504C217.322 345.504 233.93 338.838 245.66 325.618C248.73 322.158 247.772 313.504 247.772 313.504" stroke="#C9AB1A" stroke-width="3" stroke-linecap="round"/>
<path opacity="0.634897" d="M159.581 424.054L166.541 404.054H163.421V403.294H169.541V404.054H167.661L158.021 431.694H154.661L144.461 404.054H142.621V403.294H155.701V404.054H152.861L159.581 424.054ZM198.324 416.814C198.324 422.307 196.777 426.134 193.684 428.294C190.83 430.294 186.91 431.294 181.924 431.294H170.604V430.534H173.244V404.054H170.604V403.294H182.964C188.084 403.294 191.924 404.347 194.484 406.454C197.044 408.534 198.324 411.987 198.324 416.814ZM181.044 430.534H182.564C185.257 430.534 187.177 429.587 188.324 427.694C189.497 425.774 190.084 422.574 190.084 418.094V415.774C190.084 409.774 188.937 406.16 186.644 404.934C185.55 404.347 184.004 404.054 182.004 404.054H181.044V430.534ZM215.959 403.654C211.826 403.654 209.759 407.64 209.759 415.614V418.774C209.759 422.56 210.306 425.534 211.399 427.694C212.492 429.827 214.106 430.894 216.239 430.894C219.172 430.894 221.866 428.04 224.319 422.334H225.039L224.759 431.254H224.319C224.159 430.96 224.012 430.76 223.879 430.654C223.746 430.52 223.546 430.454 223.279 430.454C223.039 430.454 222.079 430.667 220.399 431.094C218.719 431.494 217.012 431.694 215.279 431.694C210.932 431.694 207.559 430.52 205.159 428.174C202.786 425.827 201.599 422.307 201.599 417.614C201.599 412.894 202.839 409.254 205.319 406.694C207.826 404.134 211.186 402.854 215.399 402.854C217.026 402.854 218.612 403.067 220.159 403.494C221.732 403.894 222.652 404.094 222.919 404.094C223.186 404.094 223.386 404.04 223.519 403.934C223.652 403.8 223.799 403.587 223.959 403.294H224.399L224.719 411.974H223.999C222.799 409.28 221.559 407.227 220.279 405.814C219.026 404.374 217.586 403.654 215.959 403.654Z" fill="white"/>
</g>
<path fill-rule="evenodd" clip-rule="evenodd" d="M176.967 296.974C195.364 307.455 219.154 303.388 231.639 286.29C237.865 277.76 239.609 267.207 239.609 248.749C239.609 248.749 222.322 273.461 192.077 274.716C161.836 275.971 135.978 251.453 135.978 251.453C135.978 251.453 151.635 282.538 176.967 296.974Z" fill="#D0AD9C" fill-opacity="0.7"/>
<path fill-rule="evenodd" clip-rule="evenodd" d="M186.353 151.754C186.353 151.754 196.015 175.235 195.484 181.983C194.954 188.73 186.108 188.823 186.108 188.823L186.353 151.754Z" fill="#C3A394"/>
<path fill-rule="evenodd" clip-rule="evenodd" d="M162.286 147.861C162.286 153.934 158.705 158.861 154.284 158.861C149.866 158.861 146.286 153.934 146.286 147.861C146.286 141.788 149.866 136.861 154.284 136.861C158.705 136.861 162.286 141.788 162.286 147.861Z" fill="#1A1A1A"/>
<path fill-rule="evenodd" clip-rule="evenodd" d="M170.477 113.951L166.962 118.492C166.962 118.492 156.962 116.221 147.84 116.221C138.718 116.221 128.84 118.492 128.84 118.492C128.84 118.492 129.917 116.13 132.346 113.951C134.774 111.772 138.675 109.891 141.468 109.891C144.26 109.891 147.84 109.891 155.063 110.681C162.286 111.471 170.477 113.951 170.477 113.951Z" fill="#1A1A1A"/>
<path fill-rule="evenodd" clip-rule="evenodd" d="M213.031 147.861C213.031 153.934 216.612 158.861 221.033 158.861C225.451 158.861 229.031 153.934 229.031 147.861C229.031 141.788 225.451 136.861 221.033 136.861C216.612 136.861 213.031 141.788 213.031 147.861Z" fill="#1A1A1A"/>
<path fill-rule="evenodd" clip-rule="evenodd" d="M204.84 113.951L208.355 118.492C208.355 118.492 218.355 116.221 227.477 116.221C236.599 116.221 246.477 118.492 246.477 118.492C246.477 118.492 245.4 116.13 242.971 113.951C240.543 111.772 236.642 109.891 233.849 109.891C231.057 109.891 227.477 109.891 220.254 110.681C213.031 111.471 204.84 113.951 204.84 113.951Z" fill="#1A1A1A"/>
<path fill-rule="evenodd" clip-rule="evenodd" d="M178.245 151.657C178.245 168.387 164.68 181.952 147.95 181.952C131.219 181.952 117.654 168.387 117.654 151.657C117.654 134.926 131.219 121.361 147.95 121.361C164.68 121.361 178.245 134.926 178.245 151.657Z" stroke="#1A1A1A" stroke-width="2" stroke-linecap="round" stroke-linejoin="round"/>
<path fill-rule="evenodd" clip-rule="evenodd" d="M252.67 151.657C252.67 168.387 239.105 181.952 222.374 181.952C205.641 181.952 192.079 168.387 192.079 151.657C192.079 134.926 205.641 121.361 222.374 121.361C239.105 121.361 252.67 134.926 252.67 151.657Z" stroke="#1A1A1A" stroke-width="2" stroke-linecap="round" stroke-linejoin="round"/>
<path d="M178.245 151.657C178.245 151.657 185.423 144.959 192.08 151.657" stroke="#1A1A1A" stroke-width="2" stroke-linecap="round" stroke-linejoin="round"/>
<path d="M118.799 159.818L108.112 151.416" stroke="#1A1A1A" stroke-width="2" stroke-linecap="round" stroke-linejoin="round"/>
<path d="M251.584 159.818L265.808 148.635" stroke="#1A1A1A" stroke-width="2" stroke-linecap="round" stroke-linejoin="round"/>
<defs>
<clipPath id="clip0_2_602">
<rect width="382" height="214" fill="white" transform="translate(0 309.504)"/>
</clipPath>
</defs>
</svg>
